<svg xmlns="http://www.w3.org/2000/svg" style="display:none;">
<!-- Icônes Lucide (MIT) : viewBox 24x24, stroke currentColor, stroke-width 2, stroke-linecap round, stroke-linejoin round. Usage : <svg class="icon"><use href="/static/img/icons.svg#home"/></svg> -->
<defs>
  <symbol id="home" viewBox="0 0 24 24" fill="none" stroke="currentColor" stroke-width="2" stroke-linecap="round" stroke-linejoin="round">
    <path d="m3 9 9-7 9 7v11a2 2 0 0 1-2 2H5a2 2 0 0 1-2-2Z"/><path d="M9 22V12h6v10"/>
  </symbol>
  <symbol id="dumbbell" viewBox="0 0 24 24" fill="none" stroke="currentColor" stroke-width="2" stroke-linecap="round" stroke-linejoin="round">
    <path d="M6.5 6.5 17.5 17.5"/><path d="m21 21-1-1"/><path d="m3 3 1 1"/><path d="m18 22 4-4"/><path d="m2 6 4-4"/><path d="m3 10 7-7"/><path d="m14 21 7-7"/>
  </symbol>
  <symbol id="chart-line" viewBox="0 0 24 24" fill="none" stroke="currentColor" stroke-width="2" stroke-linecap="round" stroke-linejoin="round">
    <path d="M3 3v18h18"/><path d="m19 9-5 5-4-4-3 3"/>
  </symbol>
  <symbol id="grid" viewBox="0 0 24 24" fill="none" stroke="currentColor" stroke-width="2" stroke-linecap="round" stroke-linejoin="round">
    <rect width="7" height="7" x="3" y="3" rx="1"/><rect width="7" height="7" x="14" y="3" rx="1"/><rect width="7" height="7" x="14" y="14" rx="1"/><rect width="7" height="7" x="3" y="14" rx="1"/>
  </symbol>
  <symbol id="trophy" viewBox="0 0 24 24" fill="none" stroke="currentColor" stroke-width="2" stroke-linecap="round" stroke-linejoin="round">
    <path d="M6 9H4.5a2.5 2.5 0 0 1 0-5H6"/><path d="M18 9h1.5a2.5 2.5 0 0 0 0-5H18"/><path d="M4 22h16"/><path d="M10 14.66V17c0 .55-.47.98-.97 1.21C7.85 18.75 7 20.24 7 22"/><path d="M14 14.66V17c0 .55.47.98.97 1.21C16.15 18.75 17 20.24 17 22"/><path d="M18 2H6v7a6 6 0 0 0 12 0V2Z"/>
  </symbol>
  <symbol id="zap" viewBox="0 0 24 24" fill="none" stroke="currentColor" stroke-width="2" stroke-linecap="round" stroke-linejoin="round">
    <path d="M4 14a1 1 0 0 1-.78-1.63l9.9-10.2a.5.5 0 0 1 .86.46l-1.92 6.02A1 1 0 0 0 13 10h7a1 1 0 0 1 .78 1.63l-9.9 10.2a.5.5 0 0 1-.86-.46l1.92-6.02A1 1 0 0 0 11 14z"/>
  </symbol>
  <symbol id="clock" viewBox="0 0 24 24" fill="none" stroke="currentColor" stroke-width="2" stroke-linecap="round" stroke-linejoin="round">
    <circle cx="12" cy="12" r="10"/><polyline points="12 6 12 12 16 14"/>
  </symbol>
  <symbol id="history" viewBox="0 0 24 24" fill="none" stroke="currentColor" stroke-width="2" stroke-linecap="round" stroke-linejoin="round">
    <path d="M3 12a9 9 0 1 0 3-6.7L3 8"/><path d="M3 3v5h5"/><path d="M12 7v5l4 2"/>
  </symbol>
  <symbol id="sparkle" viewBox="0 0 24 24" fill="none" stroke="currentColor" stroke-width="2" stroke-linecap="round" stroke-linejoin="round">
    <path d="M9.937 15.5A2 2 0 0 0 8.5 14.063l-6.135-1.582a.5.5 0 0 1 0-.962L8.5 9.936A2 2 0 0 0 9.937 8.5l1.582-6.135a.5.5 0 0 1 .963 0L14.063 8.5A2 2 0 0 0 15.5 9.937l6.135 1.582a.5.5 0 0 1 0 .962L15.5 14.063a2 2 0 0 0-1.437 1.437l-1.582 6.135a.5.5 0 0 1-.963 0z"/>
  </symbol>
  <symbol id="check-circle" viewBox="0 0 24 24" fill="none" stroke="currentColor" stroke-width="2" stroke-linecap="round" stroke-linejoin="round">
    <circle cx="12" cy="12" r="10"/><path d="m9 12 2 2 4-4"/>
  </symbol>
  <symbol id="check" viewBox="0 0 24 24" fill="none" stroke="currentColor" stroke-width="2.5" stroke-linecap="round" stroke-linejoin="round">
    <polyline points="20 6 9 17 4 12"/>
  </symbol>
  <symbol id="plus-circle" viewBox="0 0 24 24" fill="none" stroke="currentColor" stroke-width="2" stroke-linecap="round" stroke-linejoin="round">
    <circle cx="12" cy="12" r="10"/><path d="M8 12h8"/><path d="M12 8v8"/>
  </symbol>
  <symbol id="plus" viewBox="0 0 24 24" fill="none" stroke="currentColor" stroke-width="2.5" stroke-linecap="round" stroke-linejoin="round">
    <path d="M5 12h14"/><path d="M12 5v14"/>
  </symbol>
  <symbol id="refresh" viewBox="0 0 24 24" fill="none" stroke="currentColor" stroke-width="2" stroke-linecap="round" stroke-linejoin="round">
    <path d="M3 12a9 9 0 0 1 9-9 9.75 9.75 0 0 1 6.74 2.74L21 8"/><path d="M21 3v5h-5"/><path d="M21 12a9 9 0 0 1-9 9 9.75 9.75 0 0 1-6.74-2.74L3 16"/><path d="M3 21v-5h5"/>
  </symbol>
  <symbol id="flag" viewBox="0 0 24 24" fill="none" stroke="currentColor" stroke-width="2" stroke-linecap="round" stroke-linejoin="round">
    <path d="M4 15s1-1 4-1 5 2 8 2 4-1 4-1V3s-1 1-4 1-5-2-8-2-4 1-4 1z"/><line x1="4" x2="4" y1="22" y2="15"/>
  </symbol>
  <symbol id="user" viewBox="0 0 24 24" fill="none" stroke="currentColor" stroke-width="2" stroke-linecap="round" stroke-linejoin="round">
    <path d="M19 21v-2a4 4 0 0 0-4-4H9a4 4 0 0 0-4 4v2"/><circle cx="12" cy="7" r="4"/>
  </symbol>
  <symbol id="log-out" viewBox="0 0 24 24" fill="none" stroke="currentColor" stroke-width="2" stroke-linecap="round" stroke-linejoin="round">
    <path d="M9 21H5a2 2 0 0 1-2-2V5a2 2 0 0 1 2-2h4"/><polyline points="16 17 21 12 16 7"/><line x1="21" x2="9" y1="12" y2="12"/>
  </symbol>
  <symbol id="save" viewBox="0 0 24 24" fill="none" stroke="currentColor" stroke-width="2" stroke-linecap="round" stroke-linejoin="round">
    <path d="M19 21H5a2 2 0 0 1-2-2V5a2 2 0 0 1 2-2h11l5 5v11a2 2 0 0 1-2 2z"/><polyline points="17 21 17 13 7 13 7 21"/><polyline points="7 3 7 8 15 8"/>
  </symbol>
  <symbol id="skip-forward" viewBox="0 0 24 24" fill="none" stroke="currentColor" stroke-width="2" stroke-linecap="round" stroke-linejoin="round">
    <polygon points="6 4 20 12 6 20 6 4"/><line x1="4" x2="4" y1="4" y2="20" opacity="0"/>
  </symbol>
  <symbol id="x" viewBox="0 0 24 24" fill="none" stroke="currentColor" stroke-width="2.5" stroke-linecap="round" stroke-linejoin="round">
    <path d="M18 6 6 18"/><path d="m6 6 12 12"/>
  </symbol>
  <symbol id="chevron-right" viewBox="0 0 24 24" fill="none" stroke="currentColor" stroke-width="2" stroke-linecap="round" stroke-linejoin="round">
    <path d="m9 18 6-6-6-6"/>
  </symbol>
  <symbol id="chevron-left" viewBox="0 0 24 24" fill="none" stroke="currentColor" stroke-width="2" stroke-linecap="round" stroke-linejoin="round">
    <path d="m15 18-6-6 6-6"/>
  </symbol>
  <symbol id="calendar" viewBox="0 0 24 24" fill="none" stroke="currentColor" stroke-width="2" stroke-linecap="round" stroke-linejoin="round">
    <path d="M8 2v4"/><path d="M16 2v4"/><rect width="18" height="18" x="3" y="4" rx="2"/><path d="M3 10h18"/>
  </symbol>
  <symbol id="flame" viewBox="0 0 24 24" fill="none" stroke="currentColor" stroke-width="2" stroke-linecap="round" stroke-linejoin="round">
    <path d="M8.5 14.5A2.5 2.5 0 0 0 11 12c0-1.38-.5-2-1-3-1.072-2.143-.224-4.054 2-6 .5 2.5 2 4.9 4 6.5 2 1.6 3 3.5 3 5.5a7 7 0 1 1-14 0c0-1.153.433-2.294 1-3a2.5 2.5 0 0 0 2.5 2.5z"/>
  </symbol>
  <symbol id="medal-bronze" viewBox="0 0 24 24" fill="none" stroke="currentColor" stroke-width="2" stroke-linecap="round" stroke-linejoin="round">
    <path d="M7.21 15 2.66 7.14a2 2 0 0 1 .13-2.2L4.4 2.8A2 2 0 0 1 6 2h12a2 2 0 0 1 1.6.8l1.6 2.14a2 2 0 0 1 .14 2.2L16.79 15"/><path d="M11 12 5.12 2.2"/><path d="m13 12 5.88-9.8"/><path d="M8 7h8"/><circle cx="12" cy="17" r="5"/><path d="M12 18v-2h-.5"/>
  </symbol>
  <symbol id="medal-silver" viewBox="0 0 24 24" fill="none" stroke="currentColor" stroke-width="2" stroke-linecap="round" stroke-linejoin="round">
    <path d="M7.21 15 2.66 7.14a2 2 0 0 1 .13-2.2L4.4 2.8A2 2 0 0 1 6 2h12a2 2 0 0 1 1.6.8l1.6 2.14a2 2 0 0 1 .14 2.2L16.79 15"/><path d="M11 12 5.12 2.2"/><path d="m13 12 5.88-9.8"/><path d="M8 7h8"/><circle cx="12" cy="17" r="5"/>
  </symbol>
  <symbol id="medal-gold" viewBox="0 0 24 24" fill="none" stroke="currentColor" stroke-width="2" stroke-linecap="round" stroke-linejoin="round">
    <circle cx="12" cy="8" r="6"/><path d="M15.477 12.89 17 22l-5-3-5 3 1.523-9.11"/>
  </symbol>
  <symbol id="gem" viewBox="0 0 24 24" fill="none" stroke="currentColor" stroke-width="2" stroke-linecap="round" stroke-linejoin="round">
    <path d="M6 3h12l4 6-10 13L2 9z"/><path d="M11 3 8 9l4 13 4-13-3-6"/><path d="M2 9h20"/>
  </symbol>
  <symbol id="arrow-up" viewBox="0 0 24 24" fill="none" stroke="currentColor" stroke-width="2" stroke-linecap="round" stroke-linejoin="round">
    <path d="M12 19V5"/><path d="m5 12 7-7 7 7"/>
  </symbol>
  <symbol id="arrow-down" viewBox="0 0 24 24" fill="none" stroke="currentColor" stroke-width="2" stroke-linecap="round" stroke-linejoin="round">
    <path d="M12 5v14"/><path d="m19 12-7 7-7-7"/>
  </symbol>
  <symbol id="trash" viewBox="0 0 24 24" fill="none" stroke="currentColor" stroke-width="2" stroke-linecap="round" stroke-linejoin="round">
    <path d="M3 6h18"/><path d="M19 6v14a2 2 0 0 1-2 2H7a2 2 0 0 1-2-2V6"/><path d="M8 6V4a2 2 0 0 1 2-2h4a2 2 0 0 1 2 2v2"/>
  </symbol>
  <symbol id="download" viewBox="0 0 24 24" fill="none" stroke="currentColor" stroke-width="2" stroke-linecap="round" stroke-linejoin="round">
    <path d="M21 15v4a2 2 0 0 1-2 2H5a2 2 0 0 1-2-2v-4"/><polyline points="7 10 12 15 17 10"/><line x1="12" x2="12" y1="15" y2="3"/>
  </symbol>
  <symbol id="upload" viewBox="0 0 24 24" fill="none" stroke="currentColor" stroke-width="2" stroke-linecap="round" stroke-linejoin="round">
    <path d="M21 15v4a2 2 0 0 1-2 2H5a2 2 0 0 1-2-2v-4"/><polyline points="17 8 12 3 7 8"/><line x1="12" x2="12" y1="3" y2="15"/>
  </symbol>
  <symbol id="info" viewBox="0 0 24 24" fill="none" stroke="currentColor" stroke-width="2" stroke-linecap="round" stroke-linejoin="round">
    <circle cx="12" cy="12" r="10"/><path d="M12 16v-4"/><path d="M12 8h.01"/>
  </symbol>
  <symbol id="target" viewBox="0 0 24 24" fill="none" stroke="currentColor" stroke-width="2" stroke-linecap="round" stroke-linejoin="round">
    <circle cx="12" cy="12" r="10"/><circle cx="12" cy="12" r="6"/><circle cx="12" cy="12" r="2"/>
  </symbol>
  <symbol id="shield-check" viewBox="0 0 24 24" fill="none" stroke="currentColor" stroke-width="2" stroke-linecap="round" stroke-linejoin="round">
    <path d="M20 13c0 5-3.5 7.5-7.66 8.95a1 1 0 0 1-.67-.01C7.5 20.5 4 18 4 13V6a1 1 0 0 1 1-1c2 0 4.5-1.2 6.24-2.72a1.17 1.17 0 0 1 1.52 0C14.51 3.81 17 5 19 5a1 1 0 0 1 1 1z"/><path d="m9 12 2 2 4-4"/>
  </symbol>
  <symbol id="edit" viewBox="0 0 24 24" fill="none" stroke="currentColor" stroke-width="2" stroke-linecap="round" stroke-linejoin="round">
    <path d="M12 20h9"/><path d="M16.5 3.5a2.121 2.121 0 0 1 3 3L7 19l-4 1 1-4L16.5 3.5z"/>
  </symbol>
  <symbol id="clipboard-list" viewBox="0 0 24 24" fill="none" stroke="currentColor" stroke-width="2" stroke-linecap="round" stroke-linejoin="round">
    <rect width="8" height="4" x="8" y="2" rx="1"/><path d="M16 4h2a2 2 0 0 1 2 2v14a2 2 0 0 1-2 2H6a2 2 0 0 1-2-2V6a2 2 0 0 1 2-2h2"/><path d="M12 11h4"/><path d="M12 16h4"/><path d="M8 11h.01"/><path d="M8 16h.01"/>
  </symbol>
  <symbol id="arrow-left" viewBox="0 0 24 24" fill="none" stroke="currentColor" stroke-width="2" stroke-linecap="round" stroke-linejoin="round">
    <path d="M19 12H5"/><path d="m12 19-7-7 7-7"/>
  </symbol>
  <symbol id="hourglass" viewBox="0 0 24 24" fill="none" stroke="currentColor" stroke-width="2" stroke-linecap="round" stroke-linejoin="round">
    <path d="M5 22h14"/><path d="M5 2h14"/><path d="M17 22v-4.172a2 2 0 0 0-.586-1.414L12 12l-4.414 4.414A2 2 0 0 0 7 17.828V22"/><path d="M7 2v4.172a2 2 0 0 0 .586 1.414L12 12l4.414-4.414A2 2 0 0 0 17 6.172V2"/>
  </symbol>
  <symbol id="play" viewBox="0 0 24 24" fill="none" stroke="currentColor" stroke-width="2" stroke-linecap="round" stroke-linejoin="round">
    <polygon points="6 3 20 12 6 21 6 3"/>
  </symbol>
  <symbol id="alert-triangle" viewBox="0 0 24 24" fill="none" stroke="currentColor" stroke-width="2" stroke-linecap="round" stroke-linejoin="round">
    <path d="m21.73 18-8-14a2 2 0 0 0-3.48 0l-8 14A2 2 0 0 0 4 21h16a2 2 0 0 0 1.73-3Z"/><path d="M12 9v4"/><path d="M12 17h.01"/>
  </symbol>
  <symbol id="settings" viewBox="0 0 24 24" fill="none" stroke="currentColor" stroke-width="2" stroke-linecap="round" stroke-linejoin="round">
    <path d="M12.22 2h-.44a2 2 0 0 0-2 2v.18a2 2 0 0 1-1 1.73l-.43.25a2 2 0 0 1-2 0l-.15-.08a2 2 0 0 0-2.73.73l-.22.38a2 2 0 0 0 .73 2.73l.15.1a2 2 0 0 1 1 1.72v.51a2 2 0 0 1-1 1.74l-.15.09a2 2 0 0 0-.73 2.73l.22.38a2 2 0 0 0 2.73.73l.15-.08a2 2 0 0 1 2 0l.43.25a2 2 0 0 1 1 1.73V20a2 2 0 0 0 2 2h.44a2 2 0 0 0 2-2v-.18a2 2 0 0 1 1-1.73l.43-.25a2 2 0 0 1 2 0l.15.08a2 2 0 0 0 2.73-.73l.22-.39a2 2 0 0 0-.73-2.73l-.15-.08a2 2 0 0 1-1-1.74v-.5a2 2 0 0 1 1-1.74l.15-.09a2 2 0 0 0 .73-2.73l-.22-.38a2 2 0 0 0-2.73-.73l-.15.08a2 2 0 0 1-2 0l-.43-.25a2 2 0 0 1-1-1.73V4a2 2 0 0 0-2-2z"/><circle cx="12" cy="12" r="3"/>
  </symbol>
  <symbol id="bell" viewBox="0 0 24 24" fill="none" stroke="currentColor" stroke-width="2" stroke-linecap="round" stroke-linejoin="round">
    <path d="M6 8a6 6 0 0 1 12 0c0 7 3 9 3 9H3s3-2 3-9"/><path d="M10.3 21a1.94 1.94 0 0 0 3.4 0"/>
  </symbol>
  <symbol id="lock" viewBox="0 0 24 24" fill="none" stroke="currentColor" stroke-width="2" stroke-linecap="round" stroke-linejoin="round">
    <rect width="18" height="11" x="3" y="11" rx="2" ry="2"/><path d="M7 11V7a5 5 0 0 1 10 0v4"/>
  </symbol>
  <symbol id="mail" viewBox="0 0 24 24" fill="none" stroke="currentColor" stroke-width="2" stroke-linecap="round" stroke-linejoin="round">
    <rect width="20" height="16" x="2" y="4" rx="2"/><path d="m22 7-8.97 5.7a1.94 1.94 0 0 1-2.06 0L2 7"/>
  </symbol>
  <symbol id="rocket" viewBox="0 0 24 24" fill="none" stroke="currentColor" stroke-width="2" stroke-linecap="round" stroke-linejoin="round">
    <path d="M4.5 16.5c-1.5 1.26-2 5-2 5s3.74-.5 5-2c.71-.84.7-2.13-.09-2.91a2.18 2.18 0 0 0-2.91-.09z"/><path d="m12 15-3-3a22 22 0 0 1 2-3.95A12.88 12.88 0 0 1 22 2c0 2.72-.78 7.5-6 11a22.35 22.35 0 0 1-4 2z"/><path d="M9 12H4s.55-3.03 2-4c1.62-1.08 5 0 5 0"/><path d="M12 15v5s3.03-.55 4-2c1.08-1.62 0-5 0-5"/>
  </symbol>
  <symbol id="party" viewBox="0 0 24 24" fill="none" stroke="currentColor" stroke-width="2" stroke-linecap="round" stroke-linejoin="round">
    <path d="M5.8 11.3 2 22l10.7-3.79"/><path d="M4 3h.01"/><path d="M22 8h.01"/><path d="M15 2h.01"/><path d="M22 20h.01"/><path d="m22 2-2.24.75a2.9 2.9 0 0 0-1.96 3.12v0c.1.86-.57 1.63-1.45 1.63h-.38c-.86 0-1.6.6-1.76 1.44L14 10"/><path d="m22 13-1.5-.5c-.83-.27-1.76.27-1.93 1.15v0c-.17.86-1.01 1.35-1.85 1.15L15 14.5"/><path d="m7 12 5 5"/>
  </symbol>
  <symbol id="image" viewBox="0 0 24 24" fill="none" stroke="currentColor" stroke-width="2" stroke-linecap="round" stroke-linejoin="round">
    <rect width="18" height="18" x="3" y="3" rx="2"/><circle cx="9" cy="9" r="2"/><path d="m21 15-3.086-3.086a2 2 0 0 0-2.828 0L6 21"/>
  </symbol>
  <symbol id="sliders" viewBox="0 0 24 24" fill="none" stroke="currentColor" stroke-width="2" stroke-linecap="round" stroke-linejoin="round">
    <line x1="4" x2="4" y1="21" y2="14"/><line x1="4" x2="4" y1="10" y2="3"/><line x1="12" x2="12" y1="21" y2="12"/><line x1="12" x2="12" y1="8" y2="3"/><line x1="20" x2="20" y1="21" y2="16"/><line x1="20" x2="20" y1="12" y2="3"/><line x1="2" x2="6" y1="14" y2="14"/><line x1="10" x2="14" y1="8" y2="8"/><line x1="18" x2="22" y1="16" y2="16"/>
  </symbol>
  <symbol id="clipboard" viewBox="0 0 24 24" fill="none" stroke="currentColor" stroke-width="2" stroke-linecap="round" stroke-linejoin="round">
    <rect width="8" height="4" x="8" y="2" rx="1"/><path d="M16 4h2a2 2 0 0 1 2 2v14a2 2 0 0 1-2 2H6a2 2 0 0 1-2-2V6a2 2 0 0 1 2-2h2"/>
  </symbol>
  <symbol id="folder" viewBox="0 0 24 24" fill="none" stroke="currentColor" stroke-width="2" stroke-linecap="round" stroke-linejoin="round">
    <path d="M20 20a2 2 0 0 0 2-2V8a2 2 0 0 0-2-2h-7.9a2 2 0 0 1-1.69-.9L9.6 3.9A2 2 0 0 0 7.93 3H4a2 2 0 0 0-2 2v13a2 2 0 0 0 2 2Z"/>
  </symbol>
  <symbol id="gamepad" viewBox="0 0 24 24" fill="none" stroke="currentColor" stroke-width="2" stroke-linecap="round" stroke-linejoin="round">
    <line x1="6" x2="10" y1="11" y2="11"/><line x1="8" x2="8" y1="9" y2="13"/><line x1="15" x2="15.01" y1="12" y2="12"/><line x1="18" x2="18.01" y1="10" y2="10"/><path d="M17.32 5H6.68a4 4 0 0 0-3.978 3.59c-.006.052-.01.101-.017.152C2.604 9.416 2 14.456 2 16a3 3 0 0 0 3 3c1 0 1.5-.5 2-1l1.414-1.414A2 2 0 0 1 9.828 16h4.344a2 2 0 0 1 1.414.586L17 18c.5.5 1 1 2 1a3 3 0 0 0 3-3c0-1.545-.604-6.584-.685-7.258A4 4 0 0 0 17.32 5z"/>
  </symbol>
  <symbol id="activity" viewBox="0 0 24 24" fill="none" stroke="currentColor" stroke-width="2" stroke-linecap="round" stroke-linejoin="round">
    <polyline points="22 12 18 12 15 21 9 3 6 12 2 12"/>
  </symbol>
  <symbol id="bar-chart" viewBox="0 0 24 24" fill="none" stroke="currentColor" stroke-width="2" stroke-linecap="round" stroke-linejoin="round">
    <line x1="12" x2="12" y1="20" y2="10"/><line x1="18" x2="18" y1="20" y2="4"/><line x1="6" x2="6" y1="20" y2="16"/>
  </symbol>
  <symbol id="help-circle" viewBox="0 0 24 24" fill="none" stroke="currentColor" stroke-width="2" stroke-linecap="round" stroke-linejoin="round">
    <circle cx="12" cy="12" r="10"/><path d="M9.09 9a3 3 0 0 1 5.83 1c0 2-3 3-3 3"/><path d="M12 17h.01"/>
  </symbol>
  <symbol id="heart" viewBox="0 0 24 24" fill="none" stroke="currentColor" stroke-width="2" stroke-linecap="round" stroke-linejoin="round">
    <path d="M19 14c1.49-1.46 3-3.21 3-5.5A5.5 5.5 0 0 0 16.5 3c-1.76 0-3 .5-4.5 2-1.5-1.5-2.74-2-4.5-2A5.5 5.5 0 0 0 2 8.5c0 2.29 1.51 4.04 3 5.5l7 7Z"/>
  </symbol>
  <symbol id="utensils" viewBox="0 0 24 24" fill="none" stroke="currentColor" stroke-width="2" stroke-linecap="round" stroke-linejoin="round">
    <path d="M3 2v7c0 1.1.9 2 2 2h4a2 2 0 0 0 2-2V2"/><path d="M7 2v20"/><path d="M21 15V2v0a5 5 0 0 0-5 5v6c0 1.1.9 2 2 2h3Zm0 0v7"/>
  </symbol>
  <symbol id="pause" viewBox="0 0 24 24" fill="none" stroke="currentColor" stroke-width="2" stroke-linecap="round" stroke-linejoin="round">
    <rect x="6" y="4" width="4" height="16" rx="1"/><rect x="14" y="4" width="4" height="16" rx="1"/>
  </symbol>
  <symbol id="square" viewBox="0 0 24 24" fill="none" stroke="currentColor" stroke-width="2" stroke-linecap="round" stroke-linejoin="round">
    <rect x="4" y="4" width="16" height="16" rx="2"/>
  </symbol>
  <symbol id="footprints" viewBox="0 0 24 24" fill="none" stroke="currentColor" stroke-width="2" stroke-linecap="round" stroke-linejoin="round">
    <path d="M4 16v-2.38c0-.76.28-1.49.78-2.04l1.05-1.17c.5-.55.78-1.28.78-2.04V4.5A1.5 1.5 0 0 1 8.12 3h.76A1.5 1.5 0 0 1 10.38 4.5v3.87c0 .76.28 1.49.78 2.04l1.05 1.17c.5.55.78 1.28.78 2.04V16"/><path d="M13 22v-2.38c0-.76.28-1.49.78-2.04l1.05-1.17c.5-.55.78-1.28.78-2.04V10.5a1.5 1.5 0 0 1 1.5-1.5h.76a1.5 1.5 0 0 1 1.5 1.5v3.87c0 .76.28 1.49.78 2.04l1.05 1.17c.5.55.78 1.28.78 2.04V22"/>
  </symbol>
  <symbol id="message-circle" viewBox="0 0 24 24" fill="none" stroke="currentColor" stroke-width="2" stroke-linecap="round" stroke-linejoin="round">
    <path d="M21 11.5a8.38 8.38 0 0 1-.9 3.8 8.5 8.5 0 0 1-7.6 4.7 8.38 8.38 0 0 1-3.8-.9L3 21l1.9-5.7a8.38 8.38 0 0 1-.9-3.8 8.5 8.5 0 0 1 4.7-7.6 8.38 8.38 0 0 1 3.8-.9h.5a8.48 8.48 0 0 1 8 8v.5z"/>
  </symbol>
  <symbol id="send" viewBox="0 0 24 24" fill="none" stroke="currentColor" stroke-width="2" stroke-linecap="round" stroke-linejoin="round">
    <line x1="22" y1="2" x2="11" y2="13"/><polygon points="22 2 15 22 11 13 2 9 22 2"/>
  </symbol>
  <symbol id="award" viewBox="0 0 24 24" fill="none" stroke="currentColor" stroke-width="2" stroke-linecap="round" stroke-linejoin="round">
    <circle cx="12" cy="8" r="7"/><polyline points="8.21 13.89 7 23 12 20 17 23 15.79 13.88"/>
  </symbol>
</defs>
</svg>
